<svg width="32" height="32" viewBox="0 0 32 32" fill="none" xmlns="http://www.w3.org/2000/svg">
  <defs>
    <linearGradient id="bgGradient" x1="0%" y1="0%" x2="100%" y2="100%">
      <stop offset="0%" style="stop-color:#8B5CF6;stop-opacity:1" />
      <stop offset="50%" style="stop-color:#EC4899;stop-opacity:1" />
      <stop offset="100%" style="stop-color:#6366F1;stop-opacity:1" />
    </linearGradient>
  </defs>
  
  <!-- Background circle -->
  <circle cx="16" cy="16" r="15" fill="url(#bgGradient)"/>
  
  <!-- Envelope/Card base -->
  <rect x="8" y="10" width="16" height="12" rx="1" fill="white" stroke="#8B5CF6" stroke-width="1"/>
  
  <!-- Envelope flap -->
  <path d="M8 10 L16 14 L24 10" stroke="#8B5CF6" stroke-width="1" fill="none"/>
  
  <!-- Heart symbol -->
  <path d="M14 16 C14 15.25 14.75 14.5 15.5 14.5 C16.25 14.5 17 15.25 17 16 C17 16.75 16.25 17.5 15.5 17.5 C14.75 17.5 14 16.75 14 16 Z" fill="#EC4899"/>
  <path d="M15.5 14.5 C15.75 14.25 16 14.25 16.25 14.5 C16.5 14.75 16.5 15 16.25 15.25 C16 15.5 15.75 15.5 15.5 15.25 C15.25 15 15.25 14.75 15.5 14.5 Z" fill="#EC4899"/>
  
  <!-- Stars -->
  <circle cx="11" cy="13" r="0.5" fill="#FCD34D"/>
  <circle cx="21" cy="13" r="0.5" fill="#FCD34D"/>
  <circle cx="12" cy="19" r="0.4" fill="#FCD34D"/>
  <circle cx="20" cy="19" r="0.4" fill="#FCD34D"/>
</svg> 