<svg width="64" height="64" viewBox="0 0 64 64" fill="none" xmlns="http://www.w3.org/2000/svg">
  <!-- Background circle with gradient -->
  <defs>
    <linearGradient id="bgGradient" x1="0%" y1="0%" x2="100%" y2="100%">
      <stop offset="0%" style="stop-color:#8B5CF6;stop-opacity:1" />
      <stop offset="50%" style="stop-color:#EC4899;stop-opacity:1" />
      <stop offset="100%" style="stop-color:#6366F1;stop-opacity:1" />
    </linearGradient>
    <linearGradient id="cardGradient" x1="0%" y1="0%" x2="100%" y2="100%">
      <stop offset="0%" style="stop-color:#FFFFFF;stop-opacity:1" />
      <stop offset="100%" style="stop-color:#F3F4F6;stop-opacity:1" />
    </linearGradient>
    <filter id="glow">
      <feGaussianBlur stdDeviation="2" result="coloredBlur"/>
      <feMerge> 
        <feMergeNode in="coloredBlur"/>
        <feMergeNode in="SourceGraphic"/>
      </feMerge>
    </filter>
  </defs>
  
  <!-- Background circle -->
  <circle cx="32" cy="32" r="30" fill="url(#bgGradient)" filter="url(#glow)"/>
  
  <!-- Envelope/Card base -->
  <rect x="16" y="20" width="32" height="24" rx="2" fill="url(#cardGradient)" stroke="#8B5CF6" stroke-width="1.5"/>
  
  <!-- Envelope flap -->
  <path d="M16 20 L32 28 L48 20" stroke="#8B5CF6" stroke-width="1.5" fill="none"/>
  
  <!-- Heart symbol -->
  <path d="M28 32 C28 30.5 29.5 29 31 29 C32.5 29 34 30.5 34 32 C34 33.5 32.5 35 31 35 C29.5 35 28 33.5 28 32 Z" fill="#EC4899"/>
  <path d="M31 29 C31.5 28.5 32 28.5 32.5 29 C33 29.5 33 30 32.5 30.5 C32 31 31.5 31 31 30.5 C30.5 30 30.5 29.5 31 29 Z" fill="#EC4899"/>
  
  <!-- Stars -->
  <circle cx="22" cy="26" r="1" fill="#FCD34D"/>
  <circle cx="42" cy="26" r="1" fill="#FCD34D"/>
  <circle cx="24" cy="38" r="0.8" fill="#FCD34D"/>
  <circle cx="40" cy="38" r="0.8" fill="#FCD34D"/>
  
  <!-- Cosmic lines -->
  <path d="M20 16 L24 20" stroke="#8B5CF6" stroke-width="1" opacity="0.6"/>
  <path d="M44 16 L40 20" stroke="#8B5CF6" stroke-width="1" opacity="0.6"/>
  <path d="M20 48 L24 44" stroke="#8B5CF6" stroke-width="1" opacity="0.6"/>
  <path d="M44 48 L40 44" stroke="#8B5CF6" stroke-width="1" opacity="0.6"/>
</svg> 